<?xml version="1.0" encoding="UTF-8" standalone="no"?>
<!-- Generator: Adobe Illustrator 19.0.0, SVG Export Plug-In . SVG Version: 6.00 Build 0)  -->

<svg
   version="1.1"
   id="Layer_1"
   x="0px"
   y="0px"
   viewBox="0 0 502 502"
   style="enable-background:new 0 0 502 502;"
   xml:space="preserve"
   sodipodi:docname="arrow_left.svg"
   inkscape:version="1.2.1 (9c6d41e410, 2022-07-14)"
   xmlns:inkscape="http://www.inkscape.org/namespaces/inkscape"
   xmlns:sodipodi="http://sodipodi.sourceforge.net/DTD/sodipodi-0.dtd"
   xmlns="http://www.w3.org/2000/svg"
   xmlns:svg="http://www.w3.org/2000/svg"><defs
   id="defs59" /><sodipodi:namedview
   id="namedview57"
   pagecolor="#ffffff"
   bordercolor="#000000"
   borderopacity="0.25"
   inkscape:showpageshadow="2"
   inkscape:pageopacity="0.0"
   inkscape:pagecheckerboard="0"
   inkscape:deskcolor="#d1d1d1"
   showgrid="false"
   inkscape:zoom="2.0458167"
   inkscape:cx="195.03213"
   inkscape:cy="251"
   inkscape:window-width="3440"
   inkscape:window-height="1351"
   inkscape:window-x="-9"
   inkscape:window-y="-9"
   inkscape:window-maximized="1"
   inkscape:current-layer="Layer_1" />
<g
   id="g24"
   transform="rotate(-135,335.60776,215.98463)"
   style="fill:#d94e5c;fill-opacity:1">
	<g
   id="g14"
   style="fill:#d94e5c;fill-opacity:1">
		<g
   id="g6"
   style="fill:#d94e5c;fill-opacity:1">
			<g
   id="g4"
   style="fill:#d94e5c;fill-opacity:1">
				<path
   d="m 456.119,351.3 c -25.299,0 -45.881,-20.582 -45.881,-45.881 V 91.762 H 196.581 C 171.282,91.762 150.7,71.18 150.7,45.881 150.7,20.582 171.282,0 196.581,0 H 456.12 C 481.418,0 502,20.582 502,45.881 v 259.538 c 0,25.299 -20.582,45.881 -45.881,45.881 z M 196.581,20 C 182.31,20 170.7,31.61 170.7,45.881 c 0,14.271 11.61,25.881 25.881,25.881 h 223.658 c 5.522,0 10,4.478 10,10 v 223.657 c 0,14.271 11.61,25.881 25.881,25.881 14.271,0 25.88,-11.611 25.88,-25.881 V 45.881 C 482,31.61 470.39,20 456.119,20 Z"
   id="path2"
   style="fill:#d94e5c;fill-opacity:1" />
			</g>
		</g>
		
	</g>
	<g
   id="g18"
   style="fill:#d94e5c;fill-opacity:1">
		<path
   d="M 339,49 H 199 c -5.523,0 -10,-4.478 -10,-10 0,-5.522 4.477,-10 10,-10 h 140 c 5.522,0 10,4.478 10,10 0,5.522 -4.478,10 -10,10 z"
   id="path16"
   style="fill:#d94e5c;fill-opacity:1" />
	</g>
	<g
   id="g22"
   style="fill:#d94e5c;fill-opacity:1">
		<path
   d="m 420,49 h -40 c -5.522,0 -10,-4.478 -10,-10 0,-5.522 4.478,-10 10,-10 h 40 c 5.522,0 10,4.478 10,10 0,5.522 -4.478,10 -10,10 z"
   id="path20"
   style="fill:#d94e5c;fill-opacity:1" />
	</g>
</g>
<g
   id="g26"
   transform="rotate(-90,96.538462,-8.065238)">
</g>
<g
   id="g28"
   transform="rotate(-90,96.538462,-8.065238)">
</g>
<g
   id="g30"
   transform="rotate(-90,96.538462,-8.065238)">
</g>
<g
   id="g32"
   transform="rotate(-90,96.538462,-8.065238)">
</g>
<g
   id="g34"
   transform="rotate(-90,96.538462,-8.065238)">
</g>
<g
   id="g36"
   transform="rotate(-90,96.538462,-8.065238)">
</g>
<g
   id="g38"
   transform="rotate(-90,96.538462,-8.065238)">
</g>
<g
   id="g40"
   transform="rotate(-90,96.538462,-8.065238)">
</g>
<g
   id="g42"
   transform="rotate(-90,96.538462,-8.065238)">
</g>
<g
   id="g44"
   transform="rotate(-90,96.538462,-8.065238)">
</g>
<g
   id="g46"
   transform="rotate(-90,96.538462,-8.065238)">
</g>
<g
   id="g48"
   transform="rotate(-90,96.538462,-8.065238)">
</g>
<g
   id="g50"
   transform="rotate(-90,96.538462,-8.065238)">
</g>
<g
   id="g52"
   transform="rotate(-90,96.538462,-8.065238)">
</g>
<g
   id="g54"
   transform="rotate(-90,96.538462,-8.065238)">
</g>
</svg>
