<?xml version="1.0" encoding="UTF-8" standalone="no"?>
<!-- Generator: Adobe Illustrator 19.0.0, SVG Export Plug-In . SVG Version: 6.00 Build 0)  -->

<svg
   version="1.1"
   id="Layer_1"
   x="0px"
   y="0px"
   viewBox="0 0 477.139 477.139"
   style="enable-background:new 0 0 477.139 477.139;"
   xml:space="preserve"
   sodipodi:docname="close.svg"
   inkscape:version="1.1.1 (3bf5ae0d25, 2021-09-20)"
   xmlns:inkscape="http://www.inkscape.org/namespaces/inkscape"
   xmlns:sodipodi="http://sodipodi.sourceforge.net/DTD/sodipodi-0.dtd"
   xmlns="http://www.w3.org/2000/svg"
   xmlns:svg="http://www.w3.org/2000/svg"><defs
   id="defs49" /><sodipodi:namedview
   id="namedview47"
   pagecolor="#ffffff"
   bordercolor="#666666"
   borderopacity="1.0"
   inkscape:pageshadow="2"
   inkscape:pageopacity="0.0"
   inkscape:pagecheckerboard="0"
   showgrid="false"
   inkscape:zoom="1.6808519"
   inkscape:cx="102.62653"
   inkscape:cy="238.86697"
   inkscape:window-width="1920"
   inkscape:window-height="991"
   inkscape:window-x="-9"
   inkscape:window-y="-9"
   inkscape:window-maximized="1"
   inkscape:current-layer="Layer_1" />
<g
   id="g14"
   style="fill:#ed5564;fill-opacity:1">
	<g
   id="g4"
   style="fill:#ed5564;fill-opacity:1">
		<path
   d="M56.656,477.139c-14.515,0-29.03-5.525-40.081-16.575c-22.101-22.101-22.101-58.062,0-80.162l141.833-141.833    L16.575,96.737c-22.1-22.101-22.1-58.061,0-80.162c22.102-22.101,58.062-22.099,80.162,0L238.57,158.408L380.402,16.575    c22.1-22.099,58.061-22.1,80.162,0c22.101,22.101,22.101,58.062,0,80.162L318.731,238.569l141.833,141.833    c22.1,22.101,22.1,58.061,0,80.162c-22.102,22.102-58.062,22.1-80.162,0L238.57,318.731L96.737,460.564    C85.687,471.614,71.172,477.139,56.656,477.139z M56.656,19.99c-9.395,0-18.787,3.575-25.939,10.727    c-14.302,14.303-14.302,37.575,0,51.877l148.903,148.904c3.905,3.905,3.905,10.237,0,14.143L30.718,394.545    c-14.303,14.302-14.303,37.574,0,51.877c14.303,14.302,37.576,14.302,51.877,0l148.904-148.903c3.905-3.905,10.237-3.905,14.143,0    l148.904,148.903c14.303,14.303,37.575,14.304,51.877,0c14.302-14.303,14.302-37.575,0-51.877L297.518,245.641    c-3.905-3.905-3.905-10.237,0-14.143L446.422,82.594c14.303-14.302,14.303-37.574,0-51.877c-14.303-14.302-37.575-14.302-51.877,0    L245.641,179.621c-3.905,3.905-10.237,3.905-14.143,0L82.595,30.717C75.444,23.567,66.049,19.99,56.656,19.99z"
   id="path2"
   style="fill:#ed5564;fill-opacity:1" />
	</g>
	<g
   id="g8"
   style="fill:#ed5564;fill-opacity:1">
		<path
   d="M266.07,204.569c-2.559,0-5.119-0.976-7.071-2.929c-3.905-3.905-3.905-10.237,0-14.143l87.5-87.5    c3.905-3.905,10.237-3.905,14.143,0s3.905,10.237,0,14.143l-87.5,87.5C271.188,203.593,268.629,204.569,266.07,204.569z"
   id="path6"
   style="fill:#ed5564;fill-opacity:1" />
	</g>
	<g
   id="g12"
   style="fill:#ed5564;fill-opacity:1">
		<path
   d="M382.07,88.569c-2.559,0-5.119-0.977-7.071-2.929c-3.905-3.905-3.905-10.237,0-14.143l28.75-28.75    c3.905-3.904,10.237-3.904,14.143,0c3.905,3.905,3.905,10.237,0,14.143l-28.75,28.75C387.188,87.593,384.629,88.569,382.07,88.569    z"
   id="path10"
   style="fill:#ed5564;fill-opacity:1" />
	</g>
</g>
<g
   id="g16">
</g>
<g
   id="g18">
</g>
<g
   id="g20">
</g>
<g
   id="g22">
</g>
<g
   id="g24">
</g>
<g
   id="g26">
</g>
<g
   id="g28">
</g>
<g
   id="g30">
</g>
<g
   id="g32">
</g>
<g
   id="g34">
</g>
<g
   id="g36">
</g>
<g
   id="g38">
</g>
<g
   id="g40">
</g>
<g
   id="g42">
</g>
<g
   id="g44">
</g>
</svg>
