<?xml version="1.0" encoding="UTF-8" standalone="no"?>
<!-- Generator: Adobe Illustrator 18.0.0, SVG Export Plug-In . SVG Version: 6.00 Build 0)  -->

<svg
   version="1.1"
   id="Capa_1"
   x="0px"
   y="0px"
   viewBox="0 0 221.985 221.985"
   style="enable-background:new 0 0 221.985 221.985;"
   xml:space="preserve"
   sodipodi:docname="favorite.svg"
   inkscape:version="1.1.1 (3bf5ae0d25, 2021-09-20)"
   xmlns:inkscape="http://www.inkscape.org/namespaces/inkscape"
   xmlns:sodipodi="http://sodipodi.sourceforge.net/DTD/sodipodi-0.dtd"
   xmlns="http://www.w3.org/2000/svg"
   xmlns:svg="http://www.w3.org/2000/svg"><defs
   id="defs39" /><sodipodi:namedview
   id="namedview37"
   pagecolor="#ffffff"
   bordercolor="#666666"
   borderopacity="1.0"
   inkscape:pageshadow="2"
   inkscape:pageopacity="0.0"
   inkscape:pagecheckerboard="0"
   showgrid="false"
   inkscape:zoom="3.6128567"
   inkscape:cx="111.1309"
   inkscape:cy="111.1309"
   inkscape:window-width="1920"
   inkscape:window-height="991"
   inkscape:window-x="-9"
   inkscape:window-y="-9"
   inkscape:window-maximized="1"
   inkscape:current-layer="Capa_1" />
<g
   id="g4"
   style="fill:#395da9;fill-opacity:1">
	<path
   d="M221.544,85.313c-1.059-3.258-3.875-5.633-7.266-6.125l-65.792-9.561l-29.424-59.618c-1.516-3.071-4.645-5.017-8.07-5.017   s-6.555,1.945-8.07,5.017L73.498,69.627L7.706,79.188c-3.391,0.492-6.207,2.867-7.266,6.125s-0.176,6.835,2.277,9.226   l47.608,46.406l-11.238,65.526c-0.579,3.377,0.809,6.789,3.58,8.803c2.772,2.015,6.445,2.278,9.479,0.685l58.846-30.937   l58.846,30.937c1.317,0.692,2.755,1.034,4.188,1.034c1.866,0,3.723-0.58,5.291-1.719c2.771-2.014,4.159-5.426,3.58-8.803   l-11.238-65.526l47.608-46.406C221.72,92.148,222.603,88.571,221.544,85.313z M155.706,131.359   c-2.121,2.067-3.089,5.046-2.588,7.966l8.955,52.216l-46.893-24.652c-1.312-0.689-2.75-1.034-4.188-1.034s-2.877,0.345-4.188,1.034   L59.911,191.54l8.955-52.216c0.501-2.92-0.467-5.898-2.588-7.966l-37.938-36.98l52.428-7.618c2.932-0.426,5.466-2.267,6.776-4.923   l23.447-47.509l23.447,47.509c1.311,2.656,3.845,4.497,6.776,4.923l52.428,7.618L155.706,131.359z"
   id="path2"
   style="fill:#395da9;fill-opacity:1" />
</g>
<g
   id="g6">
</g>
<g
   id="g8">
</g>
<g
   id="g10">
</g>
<g
   id="g12">
</g>
<g
   id="g14">
</g>
<g
   id="g16">
</g>
<g
   id="g18">
</g>
<g
   id="g20">
</g>
<g
   id="g22">
</g>
<g
   id="g24">
</g>
<g
   id="g26">
</g>
<g
   id="g28">
</g>
<g
   id="g30">
</g>
<g
   id="g32">
</g>
<g
   id="g34">
</g>
</svg>
