<?xml version="1.0" encoding="UTF-8" standalone="no"?>
<!-- Generator: Adobe Illustrator 19.0.0, SVG Export Plug-In . SVG Version: 6.00 Build 0)  -->

<svg
   version="1.1"
   id="Layer_1"
   x="0px"
   y="0px"
   viewBox="0 0 496.157 496.157"
   style="enable-background:new 0 0 496.157 496.157;"
   xml:space="preserve"
   sodipodi:docname="home.svg"
   inkscape:version="1.1.1 (3bf5ae0d25, 2021-09-20)"
   xmlns:inkscape="http://www.inkscape.org/namespaces/inkscape"
   xmlns:sodipodi="http://sodipodi.sourceforge.net/DTD/sodipodi-0.dtd"
   xmlns="http://www.w3.org/2000/svg"
   xmlns:svg="http://www.w3.org/2000/svg"><defs
   id="defs45" /><sodipodi:namedview
   id="namedview43"
   pagecolor="#ffffff"
   bordercolor="#666666"
   borderopacity="1.0"
   inkscape:pageshadow="2"
   inkscape:pageopacity="0.0"
   inkscape:pagecheckerboard="0"
   showgrid="false"
   inkscape:zoom="1.6164238"
   inkscape:cx="247.76918"
   inkscape:cy="149.40389"
   inkscape:window-width="1920"
   inkscape:window-height="991"
   inkscape:window-x="-9"
   inkscape:window-y="-9"
   inkscape:window-maximized="1"
   inkscape:current-layer="Layer_1" />

<path
   style="fill:#e6e9ed;fill-opacity:1;stroke-width:1.37721"
   d="m 245.68573,56.805263 c 0,0 -209.934327,172.888437 -209.934327,190.513057 v 165.77139 c 0,17.6246 14.393193,31.92185 32.156587,31.92185 h 112.819 v -98.96805 c 0,-23.01969 18.79878,-41.67335 41.98798,-41.67335 h 47.23129 c 23.18364,0 41.98796,18.65366 41.98796,41.67335 v 98.96805 h 115.03356 c 17.75647,0 32.15243,-14.29725 32.15243,-31.92185 V 247.31969 C 459.11883,229.6937 245.68573,56.805263 245.68573,56.805263 Z"
   id="path4" />
<g
   id="g10"
   style="fill:#434a54;fill-opacity:1"
   transform="matrix(1.2853759,0,0,1.5788665,-72.368694,-113.16006)">
	<path
   style="fill:#434a54;fill-opacity:1"
   d="M 436.402,229.347 259.496,76.509 c -6.683,-5.772 -16.773,-5.038 -22.544,1.641 -5.771,6.687 -5.034,16.778 1.648,22.546 l 176.905,152.837 c 6.682,5.769 16.772,5.03 22.541,-1.648 5.772,-6.683 5.036,-16.77 -1.644,-22.538 z"
   id="path6" />
	<path
   style="fill:#434a54;fill-opacity:1"
   d="M 261.795,78.149 C 256.026,71.47 245.938,70.736 239.257,76.508 L 62.346,229.347 c -6.68,5.769 -7.416,15.856 -1.646,22.539 5.769,6.679 15.859,7.417 22.54,1.648 L 260.149,100.697 c 6.682,-5.77 7.419,-15.86 1.646,-22.548 z"
   id="path8" />
</g>
<g
   id="g12"
   transform="matrix(1,0,0,1.3039156,0.61864931,-42.381977)">
</g>
<g
   id="g14"
   transform="matrix(1,0,0,1.3039156,0.61864931,-42.381977)">
</g>
<g
   id="g16"
   transform="matrix(1,0,0,1.3039156,0.61864931,-42.381977)">
</g>
<g
   id="g18"
   transform="matrix(1,0,0,1.3039156,0.61864931,-42.381977)">
</g>
<g
   id="g20"
   transform="matrix(1,0,0,1.3039156,0.61864931,-42.381977)">
</g>
<g
   id="g22"
   transform="matrix(1,0,0,1.3039156,0.61864931,-42.381977)">
</g>
<g
   id="g24"
   transform="matrix(1,0,0,1.3039156,0.61864931,-42.381977)">
</g>
<g
   id="g26"
   transform="matrix(1,0,0,1.3039156,0.61864931,-42.381977)">
</g>
<g
   id="g28"
   transform="matrix(1,0,0,1.3039156,0.61864931,-42.381977)">
</g>
<g
   id="g30"
   transform="matrix(1,0,0,1.3039156,0.61864931,-42.381977)">
</g>
<g
   id="g32"
   transform="matrix(1,0,0,1.3039156,0.61864931,-42.381977)">
</g>
<g
   id="g34"
   transform="matrix(1,0,0,1.3039156,0.61864931,-42.381977)">
</g>
<g
   id="g36"
   transform="matrix(1,0,0,1.3039156,0.61864931,-42.381977)">
</g>
<g
   id="g38"
   transform="matrix(1,0,0,1.3039156,0.61864931,-42.381977)">
</g>
<g
   id="g40"
   transform="matrix(1,0,0,1.3039156,0.61864931,-42.381977)">
</g>
</svg>
