<?xml version="1.0" encoding="UTF-8" standalone="no"?>
<!-- Generator: Adobe Illustrator 19.0.0, SVG Export Plug-In . SVG Version: 6.00 Build 0)  -->

<svg
   version="1.1"
   id="Layer_1"
   x="0px"
   y="0px"
   viewBox="0 0 511.985 511.985"
   style="enable-background:new 0 0 511.985 511.985;"
   xml:space="preserve"
   sodipodi:docname="no_image.svg"
   inkscape:version="1.1.1 (3bf5ae0d25, 2021-09-20)"
   xmlns:inkscape="http://www.inkscape.org/namespaces/inkscape"
   xmlns:sodipodi="http://sodipodi.sourceforge.net/DTD/sodipodi-0.dtd"
   xmlns="http://www.w3.org/2000/svg"
   xmlns:svg="http://www.w3.org/2000/svg"><defs
   id="defs49" /><sodipodi:namedview
   id="namedview47"
   pagecolor="#ffffff"
   bordercolor="#666666"
   borderopacity="1.0"
   inkscape:pageshadow="2"
   inkscape:pageopacity="0.0"
   inkscape:pagecheckerboard="0"
   showgrid="false"
   inkscape:zoom="1.5664522"
   inkscape:cx="255.6733"
   inkscape:cy="255.6733"
   inkscape:window-width="1920"
   inkscape:window-height="991"
   inkscape:window-x="-9"
   inkscape:window-y="-9"
   inkscape:window-maximized="1"
   inkscape:current-layer="Layer_1" />
<path
   style="fill:#ED5564;"
   d="M491.859,156.348c-12.891-30.483-31.342-57.865-54.842-81.372  c-23.516-23.5-50.904-41.96-81.373-54.85c-31.56-13.351-65.091-20.125-99.652-20.125c-34.554,0-68.083,6.773-99.645,20.125  c-30.483,12.89-57.865,31.351-81.373,54.85c-23.499,23.507-41.959,50.889-54.85,81.372C6.774,187.91,0,221.44,0,255.993  c0,34.56,6.773,68.091,20.125,99.652c12.89,30.469,31.351,57.857,54.85,81.357c23.507,23.516,50.889,41.967,81.373,54.857  c31.562,13.344,65.091,20.125,99.645,20.125c34.561,0,68.092-6.781,99.652-20.125c30.469-12.891,57.857-31.342,81.373-54.857  c23.5-23.5,41.951-50.889,54.842-81.357c13.344-31.561,20.125-65.092,20.125-99.652C511.984,221.44,505.203,187.91,491.859,156.348z  "
   id="path2" />
<path
   style="fill:#E6E9ED;"
   d="M0.102,263.18c0.875,32.014,7.593,63.092,20.023,92.465c12.89,30.469,31.351,57.857,54.85,81.357  c23.507,23.516,50.889,41.967,81.373,54.857c31.562,13.344,65.091,20.125,99.645,20.125c34.561,0,68.092-6.781,99.652-20.125  c30.469-12.891,57.857-31.342,81.373-54.857c23.5-23.5,41.951-50.889,54.842-81.357c12.438-29.373,19.156-60.451,20.031-92.465  H0.102z"
   id="path4" />
<path
   style="fill:#434A54;"
   d="M510.765,281.211c0.812-8.344,1.219-16.75,1.219-25.218c0-9.516-0.516-18.953-1.531-28.289  c-12.719,1.961-30.984,4.516-53.998,7.054c-43.688,4.82-113.904,10.57-200.463,10.57c-86.552,0-156.776-5.75-200.455-10.57  c-23.022-2.539-41.28-5.093-53.998-7.054C0.516,237.04,0,246.478,0,255.993c0,8.468,0.406,16.875,1.219,25.218  c41.53,6.25,133.027,17.436,254.773,17.436S469.234,287.461,510.765,281.211z"
   id="path6" />
<path
   style="fill:#E6E9ED;"
   d="M309.334,266.656c0,29.459-23.891,53.334-53.342,53.334c-29.452,0-53.334-23.875-53.334-53.334  c0-29.453,23.882-53.327,53.334-53.327C285.443,213.33,309.334,237.204,309.334,266.656z"
   id="path8" />
<path
   style="fill:#434A54;"
   d="M255.992,170.66c-52.936,0-95.997,43.069-95.997,95.997s43.062,95.988,95.997,95.988  s95.996-43.061,95.996-95.988C351.988,213.729,308.928,170.66,255.992,170.66z M255.992,309.335  c-23.522,0-42.663-19.156-42.663-42.678c0-23.523,19.14-42.663,42.663-42.663c23.531,0,42.654,19.14,42.654,42.663  C298.646,290.178,279.523,309.335,255.992,309.335z"
   id="path10" />
<path
   style="opacity:0.2;fill:#FFFFFF;enable-background:new    ;"
   d="M491.859,156.348c-12.891-30.483-31.342-57.865-54.842-81.372  c-23.516-23.5-50.904-41.96-81.373-54.85c-31.56-13.351-65.091-20.125-99.652-20.125c-3.57,0-7.125,0.078-10.664,0.219  c30.789,1.25,60.662,7.93,88.974,19.906c30.498,12.89,57.873,31.351,81.371,54.85c23.5,23.507,41.969,50.889,54.857,81.372  c13.359,31.562,20.109,65.092,20.109,99.646c0,34.56-6.75,68.091-20.109,99.652c-12.889,30.469-31.357,57.857-54.857,81.357  c-23.498,23.516-50.873,41.967-81.371,54.857c-28.312,11.969-58.186,18.656-88.974,19.906c3.539,0.141,7.093,0.219,10.664,0.219  c34.561,0,68.092-6.781,99.652-20.125c30.469-12.891,57.857-31.342,81.373-54.857c23.5-23.5,41.951-50.889,54.842-81.357  c13.344-31.561,20.125-65.092,20.125-99.652C511.984,221.44,505.203,187.91,491.859,156.348z"
   id="path12" />
<path
   style="opacity:0.1;enable-background:new    ;"
   d="M20.125,355.645c12.89,30.469,31.351,57.857,54.85,81.357  c23.507,23.516,50.889,41.967,81.373,54.857c31.562,13.344,65.091,20.125,99.645,20.125c3.57,0,7.125-0.078,10.664-0.219  c-30.789-1.25-60.67-7.938-88.982-19.906c-30.483-12.891-57.857-31.342-81.364-54.857c-23.507-23.5-41.96-50.889-54.858-81.357  c-13.352-31.56-20.117-65.091-20.117-99.652c0-34.554,6.765-68.084,20.116-99.646C54.35,125.864,72.803,98.481,96.31,74.983  c23.507-23.507,50.881-41.968,81.364-54.858c28.312-11.976,58.193-18.656,88.982-19.906c-3.539-0.14-7.094-0.218-10.664-0.218  c-34.554,0-68.083,6.773-99.645,20.125c-30.483,12.89-57.865,31.351-81.373,54.858c-23.499,23.499-41.959,50.881-54.85,81.364  C6.774,187.91,0,221.44,0,255.993C0,290.553,6.774,324.085,20.125,355.645z"
   id="path14" />
<g
   id="g16">
</g>
<g
   id="g18">
</g>
<g
   id="g20">
</g>
<g
   id="g22">
</g>
<g
   id="g24">
</g>
<g
   id="g26">
</g>
<g
   id="g28">
</g>
<g
   id="g30">
</g>
<g
   id="g32">
</g>
<g
   id="g34">
</g>
<g
   id="g36">
</g>
<g
   id="g38">
</g>
<g
   id="g40">
</g>
<g
   id="g42">
</g>
<g
   id="g44">
</g>
<g
   aria-label="NO IMAGE"
   id="text2276"
   style="font-size:74.6667px;line-height:1.25;fill:#ffffff"
   transform="matrix(0.96202267,0,0,1.3480407,11.649552,-48.973334)"><path
     d="m 117.75515,176.72168 -7.71182,4.50707 -46.72637,-28.93946 24.503713,41.92716 -5.823216,3.40329 -27.391914,-46.86902 9.663392,-5.64763 42.640845,26.42871 -22.369756,-38.27585 5.823216,-3.40329 z"
     style="font-size:74.6667px;fill:#ffffff"
     id="path17679" /><path
     d="m 146.04528,108.90716 q 4.57104,1.84525 8.44147,5.84886 3.90329,3.98779 6.81397,10.03177 2.91068,6.04399 3.57786,11.6307 0.6842,5.53805 -0.70481,10.13216 -1.42428,4.77296 -4.75633,8.44138 -3.2992,3.6526 -8.58768,6.19945 -5.1571,2.48357 -10.21704,2.81613 -5.02709,0.31674 -9.54946,-1.51149 -4.52237,-1.82822 -8.40983,-5.78316 -3.85461,-3.97077 -6.78112,-10.04759 -2.87904,-5.97829 -3.58027,-11.46767 -0.71706,-5.52223 0.67558,-10.36089 1.34035,-4.61114 4.78797,-8.37568 3.48047,-3.78036 8.53902,-6.21648 5.25563,-2.53102 10.2657,-2.7991 5.02709,-0.31674 9.48497,1.46161 z m 8.48881,19.13933 q -4.58749,-9.52584 -11.34127,-12.62647 -6.76959,-3.13348 -14.16033,0.42578 -7.45643,3.59089 -9.22725,10.83729 -1.75378,7.19774 2.83371,16.72358 4.63494,9.62438 11.43859,12.66053 6.78783,3.0033 14.08003,-0.5085 7.29219,-3.51181 9.14331,-10.67548 1.86815,-7.21234 -2.76679,-16.83673 z"
     style="font-size:74.6667px;fill:#ffffff"
     id="path17681" /><path
     d="m 227.01008,131.33359 -20.69682,5.58647 -1.44412,-5.3502 6.86374,-1.85266 -11.25843,-41.710419 -6.86374,1.852654 -1.44412,-5.350198 20.69681,-5.586464 1.44412,5.350198 -6.86374,1.852654 11.25844,41.710425 6.86374,-1.85266 z"
     style="font-size:74.6667px;fill:#ffffff"
     id="path17683" /><path
     d="m 287.36318,130.59835 -7.1985,-0.5404 3.50167,-46.644813 -17.43407,30.608913 -4.29001,-0.32206 -12.55967,-32.860565 -3.50167,46.644815 -6.72587,-0.50492 4.0639,-54.134158 9.81613,0.736906 12.17078,31.222692 16.2233,-29.091124 9.99791,0.750552 z"
     style="font-size:74.6667px;fill:#ffffff"
     id="path17685" /><path
     d="m 340.97322,152.60141 -7.16429,-2.80192 0.55359,-16.02967 -21.86637,-8.55182 -10.46816,12.15214 -6.82475,-2.66912 38.17582,-43.36016 8.96386,3.505715 z m -6.42442,-25.4138 0.84511,-28.286248 -18.60305,21.341218 z"
     style="font-size:74.6667px;fill:#ffffff"
     id="path17687" /><path
     d="m 390.18277,174.16272 q -4.88695,-0.26478 -10.27824,-1.37177 -5.34204,-1.12228 -9.69755,-3.41452 -5.61378,-2.95445 -9.4769,-6.96512 -3.86312,-4.01067 -5.52391,-8.83984 -1.67608,-4.87842 -1.02076,-10.50742 0.67228,-5.66126 3.98331,-11.95255 6.06171,-11.51792 16.27022,-14.63235 10.25776,-3.12972 22.00151,3.05086 4.09741,2.1564 7.82976,5.39787 3.7816,3.22617 7.47834,8.17925 l -3.99021,7.58182 -0.58073,-0.30563 q -0.59265,-1.30068 -1.83396,-3.56074 -1.24132,-2.26005 -2.63884,-4.06673 -1.69979,-2.17174 -4.19934,-4.31121 -2.45032,-2.15475 -6.03152,-4.03948 -8.06576,-4.2449 -15.50988,-1.52957 -7.39488,2.70005 -12.04729,11.54012 -4.9071,9.32403 -2.73683,17.09928 2.18725,7.74298 10.64017,12.19164 3.09725,1.63004 6.48485,2.6301 3.41987,1.01704 6.2522,1.27168 l 6.19755,-11.77601 -12.87296,-6.77486 2.95445,-5.61377 19.19652,10.10286 z"
     style="font-size:74.6667px;fill:#ffffff"
     id="path17689" /><path
     d="m 429.54933,203.07521 -30.44543,-18.76851 28.48757,-46.21126 30.44543,18.7685 -3.36723,5.46218 -24.30049,-14.98036 -7.80586,12.66232 24.30049,14.98036 -3.36724,5.46218 -24.30048,-14.98037 -10.58,17.16241 24.30048,14.98037 z"
     style="font-size:74.6667px;fill:#ffffff"
     id="path17691" /></g></svg>
